<svg width="26" height="24" viewBox="0 0 26 24" fill="none" xmlns="http://www.w3.org/2000/svg">
<mask id="path-1-inside-1_10_147" fill="white">
<path fill-rule="evenodd" clip-rule="evenodd" d="M14.5002 4.66547C15.2473 4.23318 15.75 3.42531 15.75 2.50003C15.75 1.11932 14.6307 3.05176e-05 13.25 3.05176e-05C11.8693 3.05176e-05 10.75 1.11932 10.75 2.50003C10.75 3.42529 11.2527 4.23315 11.9998 4.66544L3.82913 18.8174C3.64325 18.7734 3.44934 18.75 3.24999 18.75C1.86927 18.75 0.749986 19.8693 0.749986 21.25C0.749986 22.6307 1.86927 23.75 3.24999 23.75C4.63069 23.75 5.74998 22.6307 5.74999 21.25H20.75C20.75 22.6307 21.8693 23.75 23.25 23.75C24.6308 23.75 25.75 22.6307 25.75 21.25C25.75 19.8693 24.6308 18.75 23.25 18.75C23.0507 18.75 22.8567 18.7734 22.6709 18.8175L14.5002 4.66547ZM12.9703 4.98455C13.0621 4.99478 13.1554 5.00003 13.25 5.00003C13.3446 5.00003 13.4379 4.99478 13.5297 4.98456L21.761 19.2416C21.4126 19.5003 21.1339 19.8476 20.9581 20.25H5.54197C5.36612 19.8475 5.08736 19.5003 4.73895 19.2416L12.9703 4.98455Z"/>
</mask>
<path fill-rule="evenodd" clip-rule="evenodd" d="M14.5002 4.66547C15.2473 4.23318 15.75 3.42531 15.75 2.50003C15.75 1.11932 14.6307 3.05176e-05 13.25 3.05176e-05C11.8693 3.05176e-05 10.75 1.11932 10.75 2.50003C10.75 3.42529 11.2527 4.23315 11.9998 4.66544L3.82913 18.8174C3.64325 18.7734 3.44934 18.75 3.24999 18.75C1.86927 18.75 0.749986 19.8693 0.749986 21.25C0.749986 22.6307 1.86927 23.75 3.24999 23.75C4.63069 23.75 5.74998 22.6307 5.74999 21.25H20.75C20.75 22.6307 21.8693 23.75 23.25 23.75C24.6308 23.75 25.75 22.6307 25.75 21.25C25.75 19.8693 24.6308 18.75 23.25 18.75C23.0507 18.75 22.8567 18.7734 22.6709 18.8175L14.5002 4.66547ZM12.9703 4.98455C13.0621 4.99478 13.1554 5.00003 13.25 5.00003C13.3446 5.00003 13.4379 4.99478 13.5297 4.98456L21.761 19.2416C21.4126 19.5003 21.1339 19.8476 20.9581 20.25H5.54197C5.36612 19.8475 5.08736 19.5003 4.73895 19.2416L12.9703 4.98455Z" fill="#171717"/>
<path d="M14.5002 4.66547L13.9994 3.7999L13.1346 4.30024L13.6342 5.16547L14.5002 4.66547ZM11.9998 4.66544L12.8658 5.16544L13.3653 4.30023L12.5006 3.79989L11.9998 4.66544ZM3.82913 18.8174L3.59835 19.7904L4.32285 19.9623L4.69515 19.3174L3.82913 18.8174ZM5.74999 21.25V20.25H4.74999L4.74999 21.25L5.74999 21.25ZM20.75 21.25L21.75 21.25L21.75 20.25H20.75V21.25ZM22.6709 18.8175L21.8048 19.3175L22.1771 19.9623L22.9017 19.7905L22.6709 18.8175ZM12.9703 4.98455L13.0809 3.99069L12.4311 3.91834L12.1042 4.48455L12.9703 4.98455ZM13.5297 4.98456L14.3957 4.48456L14.0689 3.91836L13.4191 3.9907L13.5297 4.98456ZM21.761 19.2416L22.3572 20.0445L23.0726 19.5133L22.6271 18.7416L21.761 19.2416ZM20.9581 20.25V21.25H21.6124L21.8744 20.6504L20.9581 20.25ZM5.54197 20.25L4.62562 20.6504L4.8876 21.25H5.54197V20.25ZM4.73895 19.2416L3.87292 18.7416L3.42741 19.5132L4.14277 20.0444L4.73895 19.2416ZM14.75 2.50003C14.75 3.05394 14.4503 3.53902 13.9994 3.7999L15.001 5.53103C16.0444 4.92734 16.75 3.79668 16.75 2.50003H14.75ZM13.25 1.00003C14.0784 1.00003 14.75 1.6716 14.75 2.50003H16.75C16.75 0.567033 15.183 -0.999969 13.25 -0.999969V1.00003ZM11.75 2.50003C11.75 1.6716 12.4216 1.00003 13.25 1.00003V-0.999969C11.317 -0.999969 9.75001 0.567033 9.75001 2.50003H11.75ZM12.5006 3.79989C12.0497 3.539 11.75 3.05393 11.75 2.50003H9.75001C9.75001 3.79665 10.4556 4.9273 11.499 5.531L12.5006 3.79989ZM11.1338 4.16544L2.9631 18.3174L4.69515 19.3174L12.8658 5.16544L11.1338 4.16544ZM4.05991 17.8444C3.79897 17.7825 3.52763 17.75 3.24999 17.75V19.75C3.37106 19.75 3.48753 19.7642 3.59835 19.7904L4.05991 17.8444ZM3.24999 17.75C1.31699 17.75 -0.250014 19.317 -0.250014 21.25H1.74999C1.74999 20.4216 2.42156 19.75 3.24999 19.75V17.75ZM-0.250014 21.25C-0.250014 23.183 1.31699 24.75 3.24999 24.75V22.75C2.42156 22.75 1.74999 22.0784 1.74999 21.25H-0.250014ZM3.24999 24.75C5.18298 24.75 6.74997 23.183 6.74999 21.25L4.74999 21.25C4.74998 22.0785 4.07841 22.75 3.24999 22.75V24.75ZM5.74999 22.25H20.75V20.25H5.74999V22.25ZM19.75 21.25C19.7501 23.183 21.3171 24.75 23.25 24.75V22.75C22.4216 22.75 21.75 22.0785 21.75 21.25L19.75 21.25ZM23.25 24.75C25.183 24.75 26.75 23.183 26.75 21.25H24.75C24.75 22.0784 24.0785 22.75 23.25 22.75V24.75ZM26.75 21.25C26.75 19.317 25.183 17.75 23.25 17.75V19.75C24.0785 19.75 24.75 20.4216 24.75 21.25H26.75ZM23.25 17.75C22.9724 17.75 22.701 17.7826 22.4401 17.8445L22.9017 19.7905C23.0125 19.7642 23.129 19.75 23.25 19.75V17.75ZM23.5369 18.3175L15.3662 4.16547L13.6342 5.16547L21.8048 19.3175L23.5369 18.3175ZM13.25 4.00003C13.1925 4.00003 13.1361 3.99684 13.0809 3.99069L12.8596 5.97841C12.9881 5.99272 13.1184 6.00003 13.25 6.00003V4.00003ZM13.4191 3.9907C13.3639 3.99684 13.3075 4.00003 13.25 4.00003V6.00003C13.3816 6.00003 13.5119 5.99272 13.6404 5.97842L13.4191 3.9907ZM22.6271 18.7416L14.3957 4.48456L12.6637 5.48456L20.895 19.7416L22.6271 18.7416ZM21.8744 20.6504C21.9796 20.4096 22.1471 20.2005 22.3572 20.0445L21.1648 18.4388C20.6782 18.8002 20.2882 19.2855 20.0417 19.8497L21.8744 20.6504ZM5.54197 21.25H20.9581V19.25H5.54197V21.25ZM4.14277 20.0444C4.35287 20.2005 4.52041 20.4096 4.62562 20.6504L6.45833 19.8497C6.21183 19.2855 5.82185 18.8002 5.33512 18.4387L4.14277 20.0444ZM12.1042 4.48455L3.87292 18.7416L5.60497 19.7416L13.8363 5.48455L12.1042 4.48455Z" fill="#808080" mask="url(#path-1-inside-1_10_147)"/>
</svg>
