<svg width="26" height="24" viewBox="0 0 26 24" fill="none" xmlns="http://www.w3.org/2000/svg">
<path fill-rule="evenodd" clip-rule="evenodd" d="M5.50001 2.82735L8.39713 1.1547L11.2942 2.82735V6.17265L8.39713 7.8453L5.50001 6.17265V2.82735ZM8.39713 0L12.2942 2.25V6.75L8.39713 9L4.50001 6.75V2.25L8.39713 0ZM12.8971 8.6547L10 10.3274V13.6726L12.8971 15.3453L15.7942 13.6726V10.3274L12.8971 8.6547ZM16.7942 9.75L12.8971 7.5L9.00001 9.75V14.25L12.8971 16.5L16.7942 14.25V9.75ZM21.8971 8.6547L19 10.3274V13.6726L21.8971 15.3453L24.7942 13.6726V10.3274L21.8971 8.6547ZM25.7942 9.75L21.8971 7.5L18 9.75V14.25L21.8971 16.5L25.7942 14.25V9.75ZM3.89713 8.6547L1.00001 10.3274V13.6726L3.89713 15.3453L6.79424 13.6726V10.3274L3.89713 8.6547ZM7.79424 9.75L3.89713 7.5L1.09673e-05 9.75V14.25L3.89713 16.5L7.79424 14.25V9.75ZM14.5 2.82735L17.3971 1.1547L20.2942 2.82735V6.17265L17.3971 7.8453L14.5 6.17265V2.82735ZM17.3971 0L21.2942 2.25V6.75L17.3971 9L13.5 6.75V2.25L17.3971 0ZM8.39713 16.1547L5.50001 17.8274V21.1726L8.39713 22.8453L11.2942 21.1726V17.8274L8.39713 16.1547ZM12.2942 17.25L8.39713 15L4.50001 17.25V21.75L8.39713 24L12.2942 21.75V17.25ZM14.5 17.8274L17.3971 16.1547L20.2942 17.8274V21.1726L17.3971 22.8453L14.5 21.1726V17.8274ZM17.3971 15L21.2942 17.25V21.75L17.3971 24L13.5 21.75V17.25L17.3971 15Z" fill="#808080"/>
</svg>
